<svg version="1.1" xmlns="http://www.w3.org/2000/svg" xmlns:xlink="http://www.w3.org/1999/xlink" width="502" height="385" viewBox="0,0,502,385"><g transform="translate(11,12.5)"><g data-paper-data="{&quot;isPaintingLayer&quot;:true}" fill-rule="nonzero" stroke-linecap="butt" stroke-linejoin="miter" stroke-miterlimit="10" stroke-dasharray="" stroke-dashoffset="0" style="mix-blend-mode: normal"><path d="M-11,372.5v-385h502v385z" fill="#000000" stroke="none" stroke-width="0"/><text transform="translate(178.02862,63.04677) scale(1.47481,1.47481)" font-size="40" xml:space="preserve" fill="#ffffff" fill-rule="nonzero" stroke="none" stroke-width="1" stroke-linecap="butt" stroke-linejoin="miter" stroke-miterlimit="10" stroke-dasharray="" stroke-dashoffset="0" font-family="Sans Serif" font-weight="normal" text-anchor="start" style="mix-blend-mode: normal"><tspan x="0" dy="0">Hey!</tspan></text><text transform="translate(240,148.68647) scale(0.54282,0.54282)" font-size="40" xml:space="preserve" fill="#ffffff" fill-rule="nonzero" stroke="none" stroke-width="1" stroke-linecap="butt" stroke-linejoin="miter" stroke-miterlimit="10" stroke-dasharray="" stroke-dashoffset="0" font-family="Sans Serif" font-weight="normal" text-anchor="middle" style="mix-blend-mode: normal"><tspan x="0" dy="0">Sorry but you cannot continue until</tspan><tspan x="0" dy="46.15px">you allow this page to give you notifications.</tspan><tspan x="0" dy="46.15px">You will see this screen forever if you</tspan><tspan x="0" dy="46.15px">do not proceed to let us notify you.</tspan></text><path d="M45,46.03118c0,-20.11741 16.30839,-36.42578 36.42579,-36.42578c20.11742,0 36.42579,16.30838 36.42579,36.42578c0,20.11742 -16.30838,36.42578 -36.42579,36.42578c-20.1174,0 -36.42579,-16.30839 -36.42579,-36.42578zM94.71225,39.61188c2.7208,0 4.92645,-2.20564 4.92645,-4.92643c0,-2.7208 -2.20563,-4.92645 -4.92645,-4.92645c-2.7208,0 -4.92643,2.20565 -4.92643,4.92645c0,2.7208 2.20563,4.92643 4.92643,4.92643zM68.13934,39.61188c2.7208,0 4.92643,-2.20564 4.92643,-4.92643c0,-2.7208 -2.20564,-4.92645 -4.92643,-4.92645c-2.7208,0 -4.92643,2.20565 -4.92643,4.92645c0,2.7208 2.20564,4.92643 4.92643,4.92643zM58.04025,69.00453h3.45975c0,0 2.56324,-14.4567 19.66666,-14.66667c20.436,-0.25088 20.33334,14.66667 20.33334,14.66667h4.50794c0,0 -2.30849,-18.66647 -24.67473,-18.56823c-21.57557,0.09477 -23.29296,18.56823 -23.29296,18.56823z" fill="#000000" stroke="#ffffff" stroke-width="1"/><path d="M364,46.03118c0,-20.11741 16.30839,-36.42578 36.42579,-36.42578c20.11741,0 36.42579,16.30838 36.42579,36.42578c0,20.11741 -16.30838,36.42578 -36.42579,36.42578c-20.1174,0 -36.42579,-16.30838 -36.42579,-36.42578zM413.71225,39.61188c2.7208,0 4.92645,-2.20565 4.92645,-4.92643c0,-2.7208 -2.20563,-4.92645 -4.92645,-4.92645c-2.7208,0 -4.92643,2.20565 -4.92643,4.92645c0,2.7208 2.20563,4.92643 4.92643,4.92643zM387.13934,39.61188c2.7208,0 4.92643,-2.20565 4.92643,-4.92643c0,-2.7208 -2.20565,-4.92645 -4.92643,-4.92645c-2.7208,0 -4.92643,2.20565 -4.92643,4.92645c0,2.7208 2.20565,4.92643 4.92643,4.92643zM377.04025,69.00453h3.45975c0,0 2.56325,-14.45669 19.66667,-14.66666c20.436,-0.25088 20.33333,14.66666 20.33333,14.66666h4.50794c0,0 -2.30849,-18.66647 -24.67473,-18.56823c-21.57558,0.09477 -23.29296,18.56823 -23.29296,18.56823z" fill="#000000" stroke="#ffffff" stroke-width="1"/></g></g></svg>